  0
SECTION
  2
HEADER
  9
$ACADVER
  1
AC1009
  9
$INSBASE
 10
0.0
 20
0.0
 30
0.0
  9
$EXTMIN
 10
0.0
 20
0.0
 30
0.0
  9
$EXTMAX
 10
0.0
 20
0.0
 30
0.0
  0
ENDSEC
  0
SECTION
  2
TABLES
  0
TABLE
  2
VPORT
 70
0
  0
ENDTAB
  0
TABLE
  2
LTYPE
 70
1
  0
LTYPE
  2
CONTINUOUS
 70
0
  3
Solid line
 72
65
 73
0
 40
0.0
  0
ENDTAB
  0
TABLE
  2
LAYER
 70
1
  0
LAYER
  2
0
 70
64
 62
7
  6
continuous
  0
ENDTAB
  0
TABLE
  2
STYLE
 70
1
  0
STYLE
  2
STANDARD
 70
0
 40
0
 41
1.0
 50
0.0
 71
0
 42
1
 3
ARIAL.TTF
 4

  0
ENDTAB
  0
TABLE
  2
VIEW
 70
0
  0
ENDTAB
  0
ENDSEC
  0
SECTION
  2
BLOCKS
  0
ENDSEC
  0
SECTION
  2
ENTITIES
  0
POLYLINE
  8
0
 62
0
 70
1
 66
1
 10
0.0
 20
0.0
 30
0.0
  0
VERTEX
  8
0
 10
3.38
 20
1.006028153517322e-17
 30
0.0
 42
0.9999999999999999
  0
VERTEX
  8
0
 10
2.6799999999999997
 20
1.3276033698959007e-17
 30
0.0
  0
VERTEX
  8
0
 10
2.11
 20
9.610220687030205e-18
 30
0.0
 42
0.9999999999999999
  0
VERTEX
  8
0
 10
1.4100000000000001
 20
4.286263797015737e-17
 30
0.0
  0
VERTEX
  8
0
 10
1.0
 20
0.0
 30
0.0
 42
-0.41421356237309503
  0
VERTEX
  8
0
 10
4.8871435431713036e-17
 20
1.0000000000000002
 30
0.0
  0
VERTEX
  8
0
 10
-7.711256106142313e-18
 20
2.03
 30
0.0
 42
0.9999999999999999
  0
VERTEX
  8
0
 10
1.071565949253934e-16
 20
2.73
 30
0.0
  0
VERTEX
  8
0
 10
1.0872084252885009e-16
 20
3.3
 30
0.0
 42
0.9999999999999999
  0
VERTEX
  8
0
 10
2.6225572113276504e-16
 20
4.0
 30
0.0
  0
VERTEX
  8
0
 10
2.149848452452299e-16
 20
4.57
 30
0.0
 42
0.9999999999999999
  0
VERTEX
  8
0
 10
3.106655771054672e-16
 20
5.27
 30
0.0
  0
VERTEX
  8
0
 10
2.531283199798983e-16
 20
5.84
 30
0.0
 42
0.9999999999999999
  0
VERTEX
  8
0
 10
3.7773612997329953e-16
 20
6.539999999999999
 30
0.0
  0
VERTEX
  8
0
 10
3.301810376066038e-16
 20
7.109999999999999
 30
0.0
 42
0.9999999999999999
  0
VERTEX
  8
0
 10
4.718808939387958e-16
 20
7.809999999999999
 30
0.0
  0
VERTEX
  8
0
 10
4.301503066062316e-16
 20
8.38
 30
0.0
 42
0.9999999999999999
  0
VERTEX
  8
0
 10
5.598702583280508e-16
 20
9.08
 30
0.0
  0
VERTEX
  8
0
 10
4.567222727410705e-16
 20
9.65
 30
0.0
 42
0.9999999999999999
  0
VERTEX
  8
0
 10
6.10699877395808e-16
 20
10.35
 30
0.0
  0
VERTEX
  8
0
 10
5.632710936612053e-16
 20
10.92
 30
0.0
 42
0.9999999999999999
  0
VERTEX
  8
0
 10
6.878789082212834e-16
 20
11.62
 30
0.0
  0
VERTEX
  8
0
 10
6.531641672361614e-16
 20
12.19
 30
0.0
 42
0.9999999999999999
  0
VERTEX
  8
0
 10
8.067868725687948e-16
 20
12.889999999999999
 30
0.0
  0
VERTEX
  8
0
 10
7.614799483515772e-16
 20
13.459999999999997
 30
0.0
 42
0.9999999999999999
  0
VERTEX
  8
0
 10
8.876235813863009e-16
 20
14.159999999999998
 30
0.0
  0
VERTEX
  8
0
 10
8.268401385027544e-16
 20
14.73
 30
0.0
 42
0.9999999999999999
  0
VERTEX
  8
0
 10
9.03517609366417e-16
 20
15.43
 30
0.0
  0
VERTEX
  8
0
 10
8.69527977138115e-16
 20
16.0
 30
0.0
 42
0.9999999999999999
  0
VERTEX
  8
0
 10
1.0409785290187445e-15
 20
16.700000000000003
 30
0.0
  0
VERTEX
  8
0
 10
1.0306754930508612e-15
 20
17.27
 30
0.0
 42
0.9999999999999999
  0
VERTEX
  8
0
 10
-5.162678672128986e-17
 20
17.970000000000002
 30
0.0
  0
VERTEX
  8
0
 10
0.0
 20
19.0
 30
0.0
 42
-0.41421356237309503
  0
VERTEX
  8
0
 10
1.0
 20
20.0
 30
0.0
  0
VERTEX
  8
0
 10
1.4100000000000001
 20
20.0
 30
0.0
 42
1.0000000000000009
  0
VERTEX
  8
0
 10
2.11
 20
20.0
 30
0.0
  0
VERTEX
  8
0
 10
2.6799999999999997
 20
20.0
 30
0.0
 42
1.0000000000000002
  0
VERTEX
  8
0
 10
3.38
 20
20.0
 30
0.0
  0
VERTEX
  8
0
 10
3.9499999999999997
 20
20.0
 30
0.0
 42
0.9999999999999968
  0
VERTEX
  8
0
 10
4.6499999999999995
 20
20.0
 30
0.0
  0
VERTEX
  8
0
 10
5.220000000000001
 20
20.0
 30
0.0
 42
0.9999999999999997
  0
VERTEX
  8
0
 10
5.92
 20
20.0
 30
0.0
  0
VERTEX
  8
0
 10
6.49
 20
20.0
 30
0.0
 42
0.9999999999999977
  0
VERTEX
  8
0
 10
7.1899999999999995
 20
20.0
 30
0.0
  0
VERTEX
  8
0
 10
7.76
 20
20.0
 30
0.0
 42
1.0000000000000002
  0
VERTEX
  8
0
 10
8.459999999999999
 20
20.0
 30
0.0
  0
VERTEX
  8
0
 10
9.030000000000001
 20
20.0
 30
0.0
 42
1.0000000000000007
  0
VERTEX
  8
0
 10
9.73
 20
20.0
 30
0.0
  0
VERTEX
  8
0
 10
10.3
 20
20.0
 30
0.0
 42
0.9999999999999974
  0
VERTEX
  8
0
 10
11.0
 20
20.0
 30
0.0
  0
VERTEX
  8
0
 10
11.57
 20
20.0
 30
0.0
 42
1.0000000000000042
  0
VERTEX
  8
0
 10
12.27
 20
20.0
 30
0.0
  0
VERTEX
  8
0
 10
12.84
 20
20.0
 30
0.0
 42
0.9999999999999983
  0
VERTEX
  8
0
 10
13.54
 20
20.0
 30
0.0
  0
VERTEX
  8
0
 10
14.110000000000001
 20
20.0
 30
0.0
 42
0.9999999999999997
  0
VERTEX
  8
0
 10
14.81
 20
20.0
 30
0.0
  0
VERTEX
  8
0
 10
15.379999999999999
 20
20.0
 30
0.0
 42
0.9999999999999994
  0
VERTEX
  8
0
 10
16.08
 20
20.0
 30
0.0
  0
VERTEX
  8
0
 10
16.65
 20
20.0
 30
0.0
 42
1.0000000000000029
  0
VERTEX
  8
0
 10
17.35
 20
20.0
 30
0.0
  0
VERTEX
  8
0
 10
17.919999999999998
 20
20.0
 30
0.0
 42
1.0000000000000002
  0
VERTEX
  8
0
 10
18.62
 20
20.0
 30
0.0
  0
VERTEX
  8
0
 10
19.189999999999998
 20
20.0
 30
0.0
 42
0.9999999999999974
  0
VERTEX
  8
0
 10
19.89
 20
20.0
 30
0.0
  0
VERTEX
  8
0
 10
20.459999999999997
 20
20.0
 30
0.0
 42
1.0000000000000038
  0
VERTEX
  8
0
 10
21.16
 20
20.0
 30
0.0
  0
VERTEX
  8
0
 10
21.729999999999997
 20
20.0
 30
0.0
 42
1.000000000000001
  0
VERTEX
  8
0
 10
22.43
 20
20.0
 30
0.0
  0
VERTEX
  8
0
 10
22.999999999999996
 20
20.0
 30
0.0
 42
0.9999999999999986
  0
VERTEX
  8
0
 10
23.7
 20
20.0
 30
0.0
  0
VERTEX
  8
0
 10
24.269999999999996
 20
20.0
 30
0.0
 42
1.0000000000000029
  0
VERTEX
  8
0
 10
24.97
 20
20.0
 30
0.0
  0
VERTEX
  8
0
 10
25.539999999999996
 20
20.0
 30
0.0
 42
1.0000000000000036
  0
VERTEX
  8
0
 10
26.24
 20
20.0
 30
0.0
  0
VERTEX
  8
0
 10
26.81
 20
20.0
 30
0.0
 42
0.9999999999999994
  0
VERTEX
  8
0
 10
27.51
 20
20.0
 30
0.0
  0
VERTEX
  8
0
 10
28.08
 20
20.0
 30
0.0
 42
0.9999999999999994
  0
VERTEX
  8
0
 10
28.78
 20
20.0
 30
0.0
  0
VERTEX
  8
0
 10
29.349999999999998
 20
20.0
 30
0.0
 42
0.9999999999999992
  0
VERTEX
  8
0
 10
30.05
 20
20.0
 30
0.0
  0
VERTEX
  8
0
 10
30.619999999999997
 20
20.0
 30
0.0
 42
0.9999999999999992
  0
VERTEX
  8
0
 10
31.32
 20
20.0
 30
0.0
  0
VERTEX
  8
0
 10
31.89
 20
20.0
 30
0.0
 42
1.0000000000000002
  0
VERTEX
  8
0
 10
32.59
 20
20.0
 30
0.0
  0
VERTEX
  8
0
 10
33.000000000000085
 20
19.99999999999999
 30
0.0
 42
-0.41421356237303963
  0
VERTEX
  8
0
 10
34.0
 20
19.000000000000078
 30
0.0
  0
VERTEX
  8
0
 10
34.0
 20
10.0
 30
0.0
  0
VERTEX
  8
0
 10
34.0
 20
0.9999999999999217
 30
0.0
 42
-0.4142135623730807
  0
VERTEX
  8
0
 10
33.00000000000013
 20
-4.440892098500626e-16
 30
0.0
  0
VERTEX
  8
0
 10
32.59
 20
5.944415017349983e-18
 30
0.0
 42
0.9999999999999999
  0
VERTEX
  8
0
 10
31.89
 20
7.45465273661991e-18
 30
0.0
  0
VERTEX
  8
0
 10
31.32
 20
6.6995360990325024e-18
 30
0.0
 42
0.9999999999999999
  0
VERTEX
  8
0
 10
30.619999999999997
 20
4.4357470671212304e-18
 30
0.0
  0
VERTEX
  8
0
 10
30.05
 20
5.190082846210388e-18
 30
0.0
 42
0.9999999999999999
  0
VERTEX
  8
0
 10
29.349999999999998
 20
4.539533212468318e-18
 30
0.0
  0
VERTEX
  8
0
 10
28.78
 20
5.241974988648349e-18
 30
0.0
 42
0.9999999999999999
  0
VERTEX
  8
0
 10
28.08
 20
4.3375314003701705e-18
 30
0.0
  0
VERTEX
  8
0
 10
27.51
 20
5.140968620620476e-18
 30
0.0
 42
0.9999999999999999
  0
VERTEX
  8
0
 10
26.81
 20
5.944340815156732e-18
 30
0.0
  0
VERTEX
  8
0
 10
26.24
 20
5.9443805198261345e-18
 30
0.0
 42
0.9999999999999999
  0
VERTEX
  8
0
 10
25.539999999999996
 20
4.50619481770111e-18
 30
0.0
  0
VERTEX
  8
0
 10
24.97
 20
5.225299320140409e-18
 30
0.0
 42
0.9999999999999999
  0
VERTEX
  8
0
 10
24.269999999999996
 20
4.607134861027084e-18
 30
0.0
  0
VERTEX
  8
0
 10
23.699999999999996
 20
5.275774728655748e-18
 30
0.0
 42
0.9999999999999999
  0
VERTEX
  8
0
 10
22.999999999999996
 20
5.944352504752058e-18
 30
0.0
  0
VERTEX
  8
0
 10
22.43
 20
5.9443789745316595e-18
 30
0.0
 42
0.9999999999999999
  0
VERTEX
  8
0
 10
21.729999999999997
 20
4.772281014311193e-18
 30
0.0
  0
VERTEX
  8
0
 10
21.16
 20
5.358348404472364e-18
 30
0.0
 42
0.9999999999999999
  0
VERTEX
  8
0
 10
20.459999999999997
 20
4.932427864341746e-18
 30
0.0
  0
VERTEX
  8
0
 10
19.89
 20
5.4384241712077835e-18
 30
0.0
 42
0.9999999999999999
  0
VERTEX
  8
0
 10
19.189999999999998
 20
5.94436419434731e-18
 30
0.0
  0
VERTEX
  8
0
 10
18.62
 20
5.9443906641269115e-18
 30
0.0
 42
0.9999999999999999
  0
VERTEX
  8
0
 10
17.919999999999998
 20
5.1042393902779616e-18
 30
0.0
  0
VERTEX
  8
0
 10
17.35
 20
5.524328027446692e-18
 30
0.0
 42
0.9999999999999999
  0
VERTEX
  8
0
 10
16.65
 20
5.108511929158926e-18
 30
0.0
  0
VERTEX
  8
0
 10
16.08
 20
5.52646974906972e-18
 30
0.0
 42
0.9999999999999999
  0
VERTEX
  8
0
 10
15.379999999999999
 20
5.944375883942488e-18
 30
0.0
  0
VERTEX
  8
0
 10
14.809999999999999
 20
5.9443891188322885e-18
 30
0.0
 42
0.9999999999999999
  0
VERTEX
  8
0
 10
14.110000000000001
 20
5.944379780474238e-18
 30
0.0
  0
VERTEX
  8
0
 10
13.54
 20
5.944393015364039e-18
 30
0.0
 42
0.9999999999999999
  0
VERTEX
  8
0
 10
12.84
 20
4.076789213267529e-18
 30
0.0
  0
VERTEX
  8
0
 10
12.27
 20
5.010603332945993e-18
 30
0.0
 42
0.9999999999999999
  0
VERTEX
  8
0
 10
11.57
 20
5.5059718577888364e-18
 30
0.0
  0
VERTEX
  8
0
 10
11.0
 20
5.72519457245009e-18
 30
0.0
 42
0.9999999999999999
  0
VERTEX
  8
0
 10
10.3
 20
5.545209590062913e-18
 30
0.0
  0
VERTEX
  8
0
 10
9.73
 20
5.7448181980393095e-18
 30
0.0
 42
0.9999999999999999
  0
VERTEX
  8
0
 10
9.030000000000001
 20
5.94439536660129e-18
 30
0.0
  0
VERTEX
  8
0
 10
8.459999999999999
 20
5.944408601491091e-18
 30
0.0
 42
0.9999999999999999
  0
VERTEX
  8
0
 10
7.76
 20
5.944399263133016e-18
 30
0.0
  0
VERTEX
  8
0
 10
7.1899999999999995
 20
5.944412498022817e-18
 30
0.0
 42
0.9999999999999999
  0
VERTEX
  8
0
 10
6.49
 20
5.944403159664742e-18
 30
0.0
  0
VERTEX
  8
0
 10
5.92
 20
5.9444148702712365e-18
 30
0.0
 42
0.9999999999999999
  0
VERTEX
  8
0
 10
5.220000000000001
 20
5.960897863168247e-18
 30
0.0
  0
VERTEX
  8
0
 10
4.6499999999999995
 20
5.9526525268223185e-18
 30
0.0
 42
0.9999999999999999
  0
VERTEX
  8
0
 10
3.9499999999999997
 20
1.4176160209669674e-17
 30
0.0
  0
SEQEND
  8
0
  0
ENDSEC
  0
EOF
